# xmcd CD database file generated by MAGIX-FreeDB-PlayR v2.0beta1
# 
# Track frame offsets:
#      150
#      12089
#      26169
#      44395
#      62133
#      80036
#      97345
#      114401
#      134574
#      148525
#      180322
#      193268
#      204919
#      220563
#      238609
#      261521
#      279741
#      297148
# 
# Disc length: 4232 seconds
# 
# Revision: 10 
# Processed by: cddbd v1.5.2PL0 Copyright (c) Steve Scherf et al.
# Submitted via: MAGIX-FreeDB-PlayR v2.0beta1
# 
DISCID=15108612
DTITLE=Alan Jackson - Greatest Hits - Vol II - CD 1
DYEAR=2003
DGENRE=Country
TTITLE0=Alan Jackson - Little Bitty
TTITLE1=Alan Jackson - Everything I Love
TTITLE2=Alan Jackson - Who's Cheatin' Who
TTITLE3=Alan Jackson - There Goes
TTITLE4=Alan Jackson - I'll Go On Loving You
TTITLE5=Alan Jackson - Right On The Money
TTITLE6=Alan Jackson - Gone Crazy
TTITLE7=Alan Jackson - Little Man
TTITLE8=Alan Jackson - Pop A Top
TTITLE9=Alan Jackson - The Blues Man
TTITLE10=Alan Jackson - It Must Be Love
TTITLE11=Alan Jackson - Www Memory
TTITLE12=Alan Jackson - When Somebody Loves You
TTITLE13=Alan Jackson - Where I Come From
TTITLE14=Alan Jackson - Where Were You (When The World Stopped Turning)
TTITLE15=Alan Jackson - Drive (For Daddy Gene)
TTITLE16=Alan Jackson - It's Five O'clock Somewhere (With Jimmy Buffett)
TTITLE17=Alan Jackson - Remember When
EXTD=
EXTT0=
EXTT1=
EXTT2=
EXTT3=
EXTT4=
EXTT5=
EXTT6=
EXTT7=
EXTT8=
EXTT9=
EXTT10=
EXTT11=
EXTT12=
EXTT13=
EXTT14=
EXTT15=
EXTT16=
EXTT17=
PLAYORDER=
